<svg width="32" height="32" viewBox="0 0 32 32" fill="none" xmlns="http://www.w3.org/2000/svg">
<mask id="mask0_217_667" style="mask-type:alpha" maskUnits="userSpaceOnUse" x="0" y="0" width="32" height="32">
<path d="M15.6338 2.60563C9.87535 2.60563 5.21127 3.25704 5.21127 7.8169V20.8451C5.21127 21.9915 5.71937 23.0208 6.51408 23.7373V26.0563C6.51408 26.7729 7.10035 27.3592 7.8169 27.3592H9.11972C9.83627 27.3592 10.4225 26.7729 10.4225 26.0563V24.7535H20.8451V26.0563C20.8451 26.7729 21.4313 27.3592 22.1479 27.3592H23.4507C24.1673 27.3592 24.7535 26.7729 24.7535 26.0563V23.7373C25.5482 23.0208 26.0563 21.9915 26.0563 20.8451V7.8169C26.0563 3.25704 21.3923 2.60563 15.6338 2.60563ZM23.0077 6.50106H8.25986C8.97641 5.81056 10.8264 5.21127 15.6338 5.21127C20.4412 5.21127 22.2912 5.81056 23.0077 6.50106ZM23.4507 9.10669V13.0282H7.8169V9.10669H23.4507ZM23.0077 21.7961L22.6299 22.1479H8.63768L8.25986 21.7961C8.09049 21.6528 7.8169 21.3271 7.8169 20.8451V15.6338H23.4507V20.8451C23.4507 21.3271 23.1771 21.6528 23.0077 21.7961Z" fill="black"/>
<path d="M11.0739 20.8451C12.1532 20.8451 13.0282 19.9701 13.0282 18.8908C13.0282 17.8116 12.1532 16.9366 11.0739 16.9366C9.99465 16.9366 9.11972 17.8116 9.11972 18.8908C9.11972 19.9701 9.99465 20.8451 11.0739 20.8451Z" fill="black"/>
<path d="M20.1937 20.8451C21.273 20.8451 22.1479 19.9701 22.1479 18.8908C22.1479 17.8116 21.273 16.9366 20.1937 16.9366C19.1144 16.9366 18.2394 17.8116 18.2394 18.8908C18.2394 19.9701 19.1144 20.8451 20.1937 20.8451Z" fill="black"/>
</mask>
<g mask="url(#mask0_217_667)">
<rect x="-27.3594" y="-3.12695" width="73.4789" height="41.4296" fill="black"/>
</g>
</svg>
